<?xml version="1.0" encoding="utf-8"?>
<!-- Generator: Adobe Illustrator 24.2.1, SVG Export Plug-In . SVG Version: 6.00 Build 0)  -->
<svg version="1.1" id="Layer_1" xmlns="http://www.w3.org/2000/svg" xmlns:xlink="http://www.w3.org/1999/xlink" x="0px" y="0px"
	 viewBox="0 0 100 125" style="enable-background:new 0 0 100 125;" xml:space="preserve">
<style type="text/css">
	.st0{fill:none;stroke:#000000;stroke-miterlimit:10;}
</style>
<polygon class="st0" points="46.1,10.8 50.3,9.8 49.7,17.4 49.8,21.8 51.6,22.5 53.3,22.3 54.3,22.5 55.5,24.6 56.7,32.3 58.6,47.4 
	58.8,58.5 57,57.8 55.8,45.8 55.4,42.1 54.8,39.8 54,38.6 53.9,48.6 53.9,52.9 53.1,62.1 52.5,71.6 52.2,81.1 52.9,90.2 50.7,90.2 
	48.7,90.2 47.2,80.8 46.9,75.3 45.9,64.7 44.7,56.2 44.7,52.6 44.3,37.5 42.9,46 41.7,57 41.3,60.9 39.6,59.1 39.6,50.6 40.1,39.9 
	41.7,26 44.4,23.8 45.5,23.1 46.5,21.1 45.9,18 "/>
<polyline class="st0" points="49.8,61.9 49.8,81.1 50.4,89.8 "/>
</svg>
